# xmcd
#
# Track frame offsets:
#	150
#	3124
#	16858
#	40712
#	64786
#	87187
#	110783
#	138302
#	157291
#	161123
#	203456
#
# Disc length: 3819 seconds
#
# Revision: 1
# Processed by: cddbd v1.5.2PL0 Copyright (c) Steve Scherf et al.
# Submitted via: EZCDAudioConverter 2.1.7.1
#
DISCID=860ee90b
DTITLE=V/A - Real World Notes V07
DYEAR=1900
DGENRE=
TTITLE0=Various Artist - Cookin' With Mr. Green
TTITLE1=Amabhubesi - Rega Kusarira: Don't Be Left Behind
TTITLE2=Afro Celt Sound System - Éireann
TTITLE3=Joi - Oh My People
TTITLE4=Tama - Work In Progress
TTITLE5=Joji Hirota - Kokiriko Melody
TTITLE6=Bernard Kabanda - Olutalo Olwe Kakinga
TTITLE7=Rebecca Malope - Ngiyekeleni
TTITLE8=Peter Gabriel - Brimstone
TTITLE9=Pandit Shiv Kumar Sharma - Teen Taal [Extract]
TTITLE10=Various Artist - Ecd Track11
EXTD=
EXTT0=
EXTT1=
EXTT2=
EXTT3=
EXTT4=
EXTT5=
EXTT6=
EXTT7=
EXTT8=
EXTT9=
EXTT10=
PLAYORDER=
